<svg width="84" height="40" viewBox="0 0 84 40" fill="none" xmlns="http://www.w3.org/2000/svg">
<rect width="84" height="40" rx="20" fill="#1238ED"/>
<g clip-path="url(#clip0_4_1085)">
<path d="M24.2072 24.5V14.7H26.0552V22.82H30.5352V24.5H24.2072ZM35.1551 24.696C34.4644 24.696 33.8438 24.556 33.2931 24.276C32.7424 23.996 32.3084 23.59 31.9911 23.058C31.6738 22.526 31.5151 21.8867 31.5151 21.14V20.916C31.5151 20.1693 31.6738 19.53 31.9911 18.998C32.3084 18.466 32.7424 18.06 33.2931 17.78C33.8438 17.5 34.4644 17.36 35.1551 17.36C35.8458 17.36 36.4664 17.5 37.0171 17.78C37.5678 18.06 38.0018 18.466 38.3191 18.998C38.6364 19.53 38.7951 20.1693 38.7951 20.916V21.14C38.7951 21.8867 38.6364 22.526 38.3191 23.058C38.0018 23.59 37.5678 23.996 37.0171 24.276C36.4664 24.556 35.8458 24.696 35.1551 24.696ZM35.1551 23.128C35.6964 23.128 36.1444 22.9553 36.4991 22.61C36.8538 22.2553 37.0311 21.7513 37.0311 21.098V20.958C37.0311 20.3047 36.8538 19.8053 36.4991 19.46C36.1538 19.1053 35.7058 18.928 35.1551 18.928C34.6138 18.928 34.1658 19.1053 33.8111 19.46C33.4564 19.8053 33.2791 20.3047 33.2791 20.958V21.098C33.2791 21.7513 33.4564 22.2553 33.8111 22.61C34.1658 22.9553 34.6138 23.128 35.1551 23.128ZM40.0874 21.056V20.832C40.0874 20.104 40.232 19.4833 40.5214 18.97C40.8107 18.4473 41.1934 18.0507 41.6694 17.78C42.1547 17.5 42.682 17.36 43.2514 17.36C43.886 17.36 44.3667 17.472 44.6934 17.696C45.02 17.92 45.258 18.1533 45.4074 18.396H45.6594V17.556H47.3954V25.732C47.3954 26.208 47.2554 26.586 46.9754 26.866C46.6954 27.1553 46.322 27.3 45.8554 27.3H41.2074V25.76H45.2394C45.5007 25.76 45.6314 25.62 45.6314 25.34V23.534H45.3794C45.286 23.6833 45.1554 23.8373 44.9874 23.996C44.8194 24.1453 44.5954 24.2713 44.3154 24.374C44.0354 24.4767 43.6807 24.528 43.2514 24.528C42.682 24.528 42.1547 24.3927 41.6694 24.122C41.1934 23.842 40.8107 23.4453 40.5214 22.932C40.232 22.4093 40.0874 21.784 40.0874 21.056ZM43.7554 22.988C44.2967 22.988 44.7494 22.8153 45.1134 22.47C45.4774 22.1247 45.6594 21.6393 45.6594 21.014V20.874C45.6594 20.2393 45.4774 19.754 45.1134 19.418C44.7587 19.0727 44.306 18.9 43.7554 18.9C43.214 18.9 42.7614 19.0727 42.3974 19.418C42.0334 19.754 41.8514 20.2393 41.8514 20.874V21.014C41.8514 21.6393 42.0334 22.1247 42.3974 22.47C42.7614 22.8153 43.214 22.988 43.7554 22.988ZM49.3511 24.5V17.556H51.1151V24.5H49.3511ZM50.2331 16.744C49.9158 16.744 49.6451 16.6413 49.4211 16.436C49.2064 16.2307 49.0991 15.96 49.0991 15.624C49.0991 15.288 49.2064 15.0173 49.4211 14.812C49.6451 14.6067 49.9158 14.504 50.2331 14.504C50.5598 14.504 50.8304 14.6067 51.0451 14.812C51.2598 15.0173 51.3671 15.288 51.3671 15.624C51.3671 15.96 51.2598 16.2307 51.0451 16.436C50.8304 16.6413 50.5598 16.744 50.2331 16.744ZM53.0698 24.5V17.556H54.8058V18.466H55.0578C55.1698 18.2233 55.3798 17.9947 55.6878 17.78C55.9958 17.556 56.4625 17.444 57.0878 17.444C57.6292 17.444 58.1005 17.57 58.5018 17.822C58.9125 18.0647 59.2298 18.4053 59.4538 18.844C59.6778 19.2733 59.7898 19.7773 59.7898 20.356V24.5H58.0258V20.496C58.0258 19.9733 57.8952 19.5813 57.6338 19.32C57.3818 19.0587 57.0178 18.928 56.5418 18.928C56.0005 18.928 55.5805 19.11 55.2818 19.474C54.9832 19.8287 54.8338 20.328 54.8338 20.972V24.5H53.0698Z" fill="white"/>
</g>
<defs>
<clipPath id="clip0_4_1085">
<rect width="38" height="21" fill="white" transform="translate(23 9.5)"/>
</clipPath>
</defs>
</svg>
